inDegrees=yes
name=ik_S52_A03_T03
DataType=double
version=3
OpenSimVersion=4.3-2021-08-27-4bc7ad9
endheader
time	pelvis_tilt	pelvis_list	pelvis_rotation	pelvis_tx	pelvis_ty	pelvis_tz	hip_flexion_r	hip_adduction_r	hip_rotation_r	knee_angle_r	knee_angle_r_beta	ankle_angle_r	subtalar_angle_r	mtp_angle_r	hip_flexion_l	hip_adduction_l	hip_rotation_l	knee_angle_l	knee_angle_l_beta	ankle_angle_l	subtalar_angle_l	mtp_angle_l	lumbar_extension	lumbar_bending	lumbar_rotation	arm_flex_r	arm_add_r	arm_rot_r	elbow_flex_r	pro_sup_r	wrist_flex_r	wrist_dev_r	arm_flex_l	arm_add_l	arm_rot_l	elbow_flex_l	pro_sup_l	wrist_flex_l	wrist_dev_l
38.04000000000035	-0.2079271092287106	-2.943105772961238	-72.67598925250303	0	0.9399999999999999	0	2.825569226281379	3.896634991911304	-3.04445875385397	10.47739633319522	0.1828650630506374	0	0	0	14.39174589086232	-4.189153846512181	-1.97369970684634	30.08390531415998	0.5250631995903108	0	0	0	0	0	0	42.01819297204876	-42.01819297204881	4.956450041895632	84.41944687620742	85.04355023074122	0	0	42.01819297204876	-42.01819297204881	4.956450041895632	84.41944687620742	85.04355023073308	0	0
38.06000000000035	-0.2034218007269638	-2.90803060981097	-72.86712751853759	0	0.9399999999999999	0	2.83241470929986	3.896009061166774	-2.848906312552816	10.47767723239331	0.1828699656665103	0	0	0	15.15274116424002	-3.283148591104556	-1.741950942326955	27.38353354286336	0.4779328211532734	0	0	0	0	0	0	42.01934753672572	-42.01934753672577	4.956483922522545	84.41989854784497	85.04351635011574	0	0	42.01934753672572	-42.01934753672577	4.956483922522545	84.41989854784497	85.04351635010759	0	0
38.08000000000035	-0.1589189940511873	-2.930828283064163	-73.02209669913422	0	0.9399999999999999	0	2.776232782307143	3.744286559290122	-2.618360841005769	11.8489789613479	0.2068036958750588	0	0	0	15.8894631744715	-2.396685619056641	-1.373837882935786	24.70594156776457	0.4312000251628215	0	0	0	0	0	0	42.02045940272235	-42.02045940272239	4.956516506657954	84.42033293552838	85.04348376598161	0	0	42.02045940272235	-42.02045940272239	4.956516506657954	84.42033293552838	85.04348376597346	0	0
38.10000000000036	-0.009016168516885551	-2.941510964473122	-73.32153395675219	0	0.9399999999999999	0	2.686006535721353	3.549134719659362	-2.29597163553119	12.50842484310752	0.2183131977504814	0	0	0	16.45675488954299	-1.579794785911201	-1.285199334840648	21.9423196233172	0.382965722951847	0	0	0	0	0	0	42.02153827985107	-42.02153827985112	4.956548116667681	84.42075433685712	85.04345215597317	0	0	42.02153827985107	-42.02153827985112	4.956548116667681	84.42075433685712	85.04345215596504	0	0
38.12000000000036	-0.01718878671319994	-2.948362511078016	-73.32636538898886	0	0.9399999999999999	0	2.673493217844931	3.526409521598473	-2.291284090428026	12.84684277898504	0.2242197049793472	0	0	0	16.47849658359715	-1.23801802416062	-1.348499944627005	18.6905455989367	0.3262115596955811	0	0	0	0	0	0	42.02270408098811	-42.02270408098816	4.956582010049915	84.42120617802983	85.04341826259244	0	0	42.02270408098811	-42.02270408098816	4.956582010049915	84.42120617802983	85.04341826258431	0	0
38.14000000000036	0.004107832482300011	-2.911658977988365	-73.4307166637644	0	0.9399999999999999	0	2.677601930117735	3.434153552238491	-2.172096833777046	13.59667624791505	0.2373067678538263	0	0	0	16.5321892871793	-0.8932961250223668	-1.549349607687659	15.53908865885833	0.2712082598563879	0	0	0	0	0	0	42.02399435229595	-42.023994352296	4.956619501471228	84.42170598551139	85.04338077117278	0	0	42.02399435229595	-42.023994352296	4.956619501471228	84.42170598551139	85.04338077116466	0	0
38.16000000000037	0.02015963045847075	-2.631665995543615	-74.30572276921639	0	0.9399999999999999	0	0.8658167977595257	4.674807375550156	-0.9055591665203852	12.88657079950542	0.2249130897427277	0	0	0	16.81665712766332	-0.6903227069813456	-2.451262388885291	12.44844832319232	0.2172664100040731	0	0	0	0	0	0	42.02521767872395	-42.025217678724	4.956655267788219	84.42218279549715	85.04334500485726	0	0	42.02521767872395	-42.025217678724	4.956655267788219	84.42218279549715	85.04334500484914	0	0
38.18000000000037	0.01117669222131777	-2.640781084642127	-74.30652075907143	0	0.9399999999999999	0	0.8244512253187444	4.596299064816227	-1.001801375146441	13.65385732021651	0.2383047658353079	0	0	0	16.83352138250666	-0.363844000546903	-2.453138539038111	9.539297011725328	0.1664921411802631	0	0	0	0	0	0	42.0263788968677	-42.02637889686775	4.95668897083296	84.42263209909498	85.0433113018139	0	0	42.0263788968677	-42.02637889686775	4.95668897083296	84.42263209909498	85.04331130180574	0	0
38.20000000000037	-0.1777323031217412	-2.196223171437575	-75.01731051098973	0	0.9399999999999999	0	-0.1027141313408708	5.062850384796793	-1.043151381720916	12.91829657844442	0.2254668090429731	0	0	0	17.35637291834751	-0.3149992113217641	-3.054707050944475	6.871246040790342	0.119925867126416	0	0	0	0	0	0	42.02759378260987	-42.02759378260992	4.956724556416031	84.42310649971806	85.04327571623227	0	0	42.02759378260987	-42.02759378260992	4.956724556416031	84.42310649971806	85.04327571622412	0	0
38.22000000000038	-0.2551392255736918	-2.058909086586994	-75.19683369287503	0	0.9399999999999999	0	-0.004080029983177036	5.017678565639102	-0.976295168860804	13.53871696082721	0.236295187462035	0	0	0	17.53325700680608	-0.1229933206480166	-3.159748157559946	4.301474497435252	0.07507489267081353	0	0	0	0	0	0	42.02890823680989	-42.02890823680994	4.956762779152212	84.42361605649243	85.0432374934977	0	0	42.02890823680989	-42.02890823680994	4.956762779152212	84.42361605649243	85.04323749348956	0	0
38.24000000000038	-0.4233222235740778	-1.817910367409605	-75.66270684736999	0	0.9399999999999999	0	-0.695485269718382	5.281435411713872	-1.024640763096646	13.47477226638925	0.2351791420049109	0	0	0	17.8376854602699	-0.1010876928232279	-3.49598191523613	1.981232487936464	0.03457903016197014	0	0	0	0	0	0	42.02998429419792	-42.02998429419797	4.956794252169347	84.42403563133098	85.04320602048193	0	0	42.02998429419792	-42.02998429419797	4.956794252169347	84.42403563133098	85.04320602047378	0	0
38.26000000000038	-0.6019635715078622	-1.534622937482277	-76.1787038444176	0	0.9399999999999999	0	-0.4661020767435442	5.304793748741703	-0.5642696529471688	14.1728267520436	0.2473624911378948	0	0	0	17.73155769323247	3.207209962338024	-3.690946875293692	1.129219708604227	0.0197086018935547	0	0	0	0	0	0	42.03594540112648	-42.03594540112653	4.956949001637832	84.42609860848815	85.04305127101962	0	0	42.03594540112648	-42.03594540112653	4.956949001637832	84.42609860848815	85.04305127101146	0	0
38.28000000000038	-0.7438382836233346	-1.218800991421317	-76.70305542087146	0	0.9399999999999999	0	-0.9564430266850964	5.388983665730836	-0.5364114442789606	14.32627892784455	0.2500407368499705	0	0	0	17.82604484285209	3.75437459167688	-3.486122753658878	-2.758179772992466	-0.0481393184006283	0	0	0	0	0	0	42.03673437391429	-42.03673437391434	4.956972067076854	84.42640609968032	85.04302820558152	0	0	42.03673437391429	-42.03673437391434	4.956972067076854	84.42640609968032	85.04302820557336	0	0
38.30000000000039	-0.8945014804297116	-0.9923088162171457	-77.28264519677143	0	0.9399999999999999	0	-1.109820725828917	5.437204314675001	-0.327479758921326	14.85035775713449	0.2591876379610772	0	0	0	17.83342639153201	4.126917455599354	-3.261199573279993	-4.115625243215469	-0.07183121127230234	0	0	0	0	0	0	42.03719701086209	-42.03719701086214	4.956985590823706	84.42658638815877	85.0430146818352	0	0	42.03719701086209	-42.03719701086214	4.956985590823706	84.42658638815877	85.04301468182705	0	0
38.32000000000039	-1.13596791217442	-0.8988414060896479	-77.89571602018128	0	0.9399999999999999	0	-1.398338146365823	5.495327068902053	-0.07551933921379017	16.32368493631473	0.284902048196893	0	0	0	17.73341491391649	4.284805460493927	-2.949187394359522	-5.113737089228885	-0.0892515492883951	0	0	0	0	0	0	42.03771358032949	-42.03771358032954	4.95700068842607	84.42678765809447	85.04299958423344	0	0	42.03771358032949	-42.03771358032954	4.95700068842607	84.42678765809447	85.04299958422529	0	0
38.34000000000039	-1.414658414379196	-0.7440554291752868	-78.5191275733382	0	0.9399999999999999	0	-1.240786502554965	5.732210644093271	0.5421860816433802	16.32390116495226	0.284905822098555	0	0	0	17.7697956207311	4.375761016227702	-2.286788221334056	-5.687220780857617	-0.09926072791380831	0	0	0	0	0	0	42.03818829900927	-42.03818829900933	4.957014562070466	84.42697261113406	85.04298571058966	0	0	42.03818829900927	-42.03818829900933	4.957014562070466	84.42697261113406	85.0429857105815	0	0
38.3600000000004	-1.557445596795622	-0.7087994686489179	-78.84472483395119	0	0.9399999999999999	0	-1.290754371443491	5.666756446513381	0.685807969038114	17.44520106121232	0.3044761971905639	0	0	0	17.37793390483764	4.690511465918986	-0.9387518117666583	-4.970792643090681	-0.08675669805584374	0	0	0	0	0	0	42.03879910522326	-42.0387991052233	4.957032425757308	84.42721075644472	85.04296784690352	0	0	42.03879910522326	-42.0387991052233	4.957032425757308	84.42721075644472	85.04296784689537	0	0
38.3800000000004	-1.884913896939435	-0.52453618814423	-79.5459071078394	0	0.9399999999999999	0	-2.134351514433432	5.74491073322623	0.3996288271714847	17.41274407624752	0.3039097159376578	0	0	0	17.66495981473975	4.203567556714143	-1.512265467785411	-4.985978864530495	-0.08702174762090545	0	0	0	0	0	0	42.03909346422906	-42.03909346422911	4.957041005490145	84.42732513498336	85.04295926717104	0	0	42.03909346422906	-42.03909346422911	4.957041005490145	84.42732513498336	85.04295926716289	0	0
38.4000000000004	-2.129340185657359	-0.2608126386604019	-80.17441549058293	0	0.9399999999999999	0	-2.52327003487688	5.778503531238387	0.5182840581959534	17.53256963089681	0.3060010663943163	0	0	0	17.48147972324365	4.06973368529788	-1.429412001634924	-4.387038781721755	-0.07656827115372546	0	0	0	0	0	0	42.03958199503362	-42.03958199503367	4.9570552810507	84.4275154460564	85.04294499161111	0	0	42.03958199503362	-42.03958199503367	4.9570552810507	84.4275154460564	85.04294499160295	0	0
38.42000000000041	-2.229461950096806	0.06084908422077596	-80.76602132790866	0	0.9399999999999999	0	-2.828302059674375	5.69985229138014	0.6402515860148393	17.75332133636631	0.3098539104841518	0	0	0	17.88836697066489	3.82055697953127	-1.883864758871583	-3.368077885724253	-0.05878404856949753	0	0	0	0	0	0	42.0401653215321	-42.04016532153215	4.95707231617247	84.42774254551176	85.04292795649006	0	0	42.0401653215321	-42.04016532153215	4.95707231617247	84.42774254551176	85.0429279564819	0	0
38.44000000000041	-2.20020402748657	0.3479675265123954	-81.33045704938915	0	0.9399999999999999	0	-3.286902728929772	5.458374657725807	0.6161136822168767	17.9213009190685	0.3127857072784311	0	0	0	16.4370844383591	3.915514293842122	-2.093353493171031	-4.25269564712182	-0.07422354112750668	0	0	0	0	0	0	42.0385688035833	-42.03856880358335	4.957035960959351	84.42725789905012	85.04296431170178	0	0	42.0385688035833	-42.03856880358335	4.957035960959351	84.42725789905012	85.04296431169359	0	0
38.46000000000041	-2.074649195964174	0.4793421373665844	-81.86631145061865	0	0.9399999999999999	0	-3.816455824864337	4.980900174876479	0.4281186369319665	18.23352882290644	0.3182351122170035	0	0	0	15.58599888313409	3.787303619290507	-2.455302870255762	-4.380135831349124	-0.07644779194162127	0	0	0	0	0	0	42.03883762569741	-42.03883762569746	4.957043794845328	84.4273623345163	85.04295647781612	0	0	42.03883762569741	-42.03883762569746	4.957043794845328	84.4273623345163	85.04295647780793	0	0
38.48000000000042	-1.893104310421609	0.440407085862504	-82.32865483339745	0	0.9399999999999999	0	-4.314634111341992	4.287491537250376	0.05934394475625594	18.88768657488427	0.3296523188164611	0	0	0	14.61012172616235	3.752824900117631	-2.491850219928074	-4.459567670778985	-0.0778341390705878	0	0	0	0	0	0	42.03959804466199	-42.03959804466204	4.957066024960304	84.42765868975327	85.04293424770206	0	0	42.03959804466199	-42.03959804466204	4.957066024960304	84.42765868975327	85.04293424769388	0	0
38.50000000000042	-1.595037442669972	0.135442733587413	-82.66676261894435	0	0.9399999999999999	0	-4.936578292969475	3.311579989920488	-0.4528495965950424	19.72094752278821	0.3441954658856737	0	0	0	13.56296935011203	3.920863687380892	-2.175889071013459	-4.163587847783013	-0.07266831663983807	0	0	0	0	0	0	42.04049912423066	-42.04049912423071	4.957092315119583	84.42800917036365	85.04290795754385	0	0	42.04049912423066	-42.04049912423071	4.957092315119583	84.42800917036365	85.04290795753566	0	0
